<svg width="22" height="22" viewBox="0 0 22 22" fill="none" xmlns="http://www.w3.org/2000/svg">
<path d="M16 0.943665H6C3.23858 0.943665 1 3.18224 1 5.94366V15.9437C1 18.7051 3.23858 20.9437 6 20.9437H16C18.7614 20.9437 21 18.7051 21 15.9437V5.94366C21 3.18224 18.7614 0.943665 16 0.943665Z" stroke="white" stroke-width="1.5" stroke-linecap="round" stroke-linejoin="round"/>
<path d="M15 10.3137C15.1234 11.1459 14.9812 11.9959 14.5937 12.7427C14.2062 13.4895 13.5931 14.0951 12.8416 14.4733C12.0901 14.8516 11.2384 14.9833 10.4077 14.8496C9.57708 14.7159 8.80971 14.3237 8.21479 13.7288C7.61987 13.1339 7.22768 12.3665 7.09402 11.5359C6.96035 10.7052 7.09202 9.85355 7.47028 9.10203C7.84854 8.35051 8.45414 7.7374 9.20094 7.3499C9.94773 6.9624 10.7977 6.82025 11.63 6.94366C12.4789 7.06955 13.2648 7.46512 13.8716 8.07197C14.4785 8.67881 14.8741 9.46474 15 10.3137Z" stroke="white" stroke-width="1.5" stroke-linecap="round" stroke-linejoin="round"/>
<path d="M16.5 5.44366H16.51" stroke="white" stroke-width="1.5" stroke-linecap="round" stroke-linejoin="round"/>
</svg>
